<svg xmlns="http://www.w3.org/2000/svg" width="50" height="50"><g fill-rule="evenodd"><path fill="#e3abeb" d="M24.323 2.732c-.312.079-.467.317-.463.714a.565.565 0 0 1-.059.278c-.055.12-.06.158-.064.476l-.004.345-.171.051c-.296.089-.661.227-1.282.483-1.233.509-1.583.67-2.136.98a150.873 150.873 0 0 1-.773.43c-.901.497-1.362.797-1.691 1.1-.124.114-.362.314-.529.444-.731.569-1.865 1.938-2.384 2.877-.232.42-.297.522-.507.802-.489.65-.691 1.076-.925 1.956-.041.153-.203.71-.36 1.238-.316 1.061-.396 1.364-.496 1.875-.037.19-.099.447-.138.572-.261.846-.295 1.151-.32 2.831-.026 1.771-.015 2.006.146 3.125.152 1.05.436 1.869.985 2.836a26.559 26.559 0 0 1 .401.741c.633 1.223.778 1.427 1.586 2.233.438.437.529.542.74.846.338.487.442.614.911 1.1.819.849 1.052 1.033 1.845 1.458.197.106.588.328.868.494.78.461 1.347.744 2.011 1.003.624.243 1.291.517 1.785.732 1.054.459 1.417.589 2.612.934.418.121 1.105.334 1.526.475 1.137.379 1.528.493 2.829.83.305.079.727.196.938.261.782.239.752.233 1.246.244l.447.01.078.108c.043.059.132.217.198.35.066.133.17.316.231.405.061.089.135.225.163.302.028.076.102.25.164.385.302.655.384.98.459 1.819.025.283.056.559.069.613.05.215.03.999-.027 1.074-.234.309-.669.693-.857.759-.105.037-.478.174-.828.304-1.043.389-2.13.753-2.65.888-.29.075-1.963.191-3.704.257-1.623.061-2.872.139-3.912.243-.441.044-.827.006-3.241-.322a151.21 151.21 0 0 0-4.525-.557c-.975-.107-.974-.107-1.319-.25a204.95 204.95 0 0 0-1.563-.626c-2.044-.812-2.825-1.158-4.375-1.937-2.385-1.199-3.328-1.837-4.051-2.743-.695-.87-1.534-1.223-1.702-.717a.148.148 0 0 1-.087.098l-.174.063c-.116.041-.132.062-.205.275-.025.074-.048.096-.124.122-.174.059-.225.162-.277.562-.027.21-.031.22-.114.286-.245.197-.236.772.018 1.074.049.058.061.107.083.322.055.553.086.637.267.717.116.051.126.062.16.177.052.176.102.221.284.26.063.014.079.032.111.127.043.128.087.175.199.211.19.061.21.075.267.188.061.12.216.213.458.275a.25.25 0 0 1 .153.105c.132.186.149.198.314.238.156.037.162.041.213.147.063.13.098.155.353.247.171.062.214.089.325.207.098.105.152.142.232.162.292.073.295.075.35.16.069.106.31.249.455.269.171.024.181.031.224.142.058.151.225.231.571.274.129.016.131.018.171.121.05.131.12.175.38.239.195.048.396.177.396.254 0 .038.119.089.303.131.146.033.184.053.263.136a.77.77 0 0 0 .464.254c.188.038.2.046.272.175.051.093.232.177.473.219.237.042.244.046.291.148.063.136.227.208.562.248.187.022.243.046.316.135.111.134.317.217.644.258.364.046.354.043.4.138.069.145.23.201.746.255.417.044.413.043.453.118.089.167.346.228 1.159.275.578.034.693.05.726.103.086.139.553.228 1.47.279.585.033.61.037.723.132.219.183.412.225 1.198.261.79.036.824.04.995.127.361.182.577.2 2.558.214 2.935.02 5.015-.072 5.636-.249.128-.036.836-.066 2.222-.091 1.671-.031 1.932-.059 2.308-.255l.18-.093.66-.034c.947-.049 1.147-.092 1.319-.28a.332.332 0 0 1 .089-.079l.442-.035c.595-.048.685-.076.786-.241l.065-.106.281-.041c.312-.045.419-.085.473-.176.077-.13.139-.165.385-.212.275-.053.359-.091.406-.182.041-.079.164-.188.212-.188.094 0 .382-.192.43-.286.059-.115.086-.138.245-.212.103-.047.13-.073.17-.163.12-.271.517-.271.604 0 .038.119.12.172.375.242.191.053.211.065.309.178.161.186.137.182 1.071.182 1.196-.001 1.695-.071 1.912-.27.042-.038.126-.051.561-.089.672-.059.763-.085.93-.271.076-.085.096-.094.301-.131.254-.047.444-.142.512-.258.048-.082.095-.106.309-.16.154-.039.207-.087.243-.223.023-.086.029-.09.157-.116.202-.04.446-.177.502-.282.046-.086.099-.119.232-.146.167-.034.235-.081.292-.203.052-.11.063-.12.171-.144.18-.041.409-.184.48-.301.047-.077.093-.114.21-.17.132-.062.159-.087.216-.194.057-.106.085-.132.211-.192.158-.076.178-.097.213-.223.021-.077.038-.09.191-.15.164-.065.168-.069.218-.194.048-.121.057-.129.174-.168.146-.048.218-.122.253-.26.024-.094.033-.102.129-.127a.299.299 0 0 0 .238-.236l.034-.127c.005-.014.056-.038.115-.052.138-.035.185-.085.231-.243.036-.123.044-.132.17-.193.132-.064.133-.066.216-.271a.938.938 0 0 1 .128-.243c.17-.14.249-.26.285-.434l.036-.175.116-.043c.162-.06.217-.181.276-.602.014-.1.021-.108.105-.134.229-.069.256-.195.256-1.226v-.768l-.214-.216c-.608-.612-1.84-.636-2.712-.053-.282.189-1.191 1.089-1.428 1.415a11.787 11.787 0 0 1-.38.486l-.498.602c-.49.593-1.378 1.582-1.503 1.674-.04.029-.249.146-.464.259a8.943 8.943 0 0 0-.63.365 3.106 3.106 0 0 1-.284.177c-.154.056-.577.107-.999.121l-.467.015-.278-.272-.278-.272-.009-1.196c-.009-1.185-.009-1.198-.069-1.462-.234-1.04-.366-1.406-.673-1.857a4.705 4.705 0 0 1-.221-.354 3.878 3.878 0 0 0-.225-.347 4.498 4.498 0 0 1-.234-.359 9.266 9.266 0 0 0-.767-1.143l-.104-.136.041-.258c.051-.32.069-.375.284-.848.095-.21.239-.549.319-.752.432-1.097.604-1.374 1.362-2.196.174-.189.397-.439.495-.555a18.5 18.5 0 0 1 .432-.489c.309-.338.456-.534.696-.926.299-.49.672-1.043.912-1.353.351-.453.604-.846 1.237-1.922.418-.71.862-2.164.941-3.079l.071-.81c.055-.626.063-1.896.017-3.023a25.807 25.807 0 0 1-.025-.912l.011-.729.008-.532-.121-.451c-.289-1.081-.33-1.225-.4-1.401a6.284 6.284 0 0 1-.323-1.065 5.845 5.845 0 0 0-.538-1.502 3.916 3.916 0 0 1-.169-.405c-.387-1.112-1.073-1.99-2.28-2.919a16.114 16.114 0 0 1-.564-.458 5.639 5.639 0 0 0-.343-.277c-.111-.074-.343-.366-.343-.432 0-.026-.02-.142-.044-.257a7.733 7.733 0 0 1-.08-.463c-.034-.248-.226-.916-.35-1.22-.084-.204-.459-.781-.592-.91-.092-.089-.148-.176-.245-.382-.178-.376-.183-.385-.358-.59-.539-.636-.714-.752-1.124-.752-.575 0-.817.129-.997.532-.031.07-.102.221-.156.336-.112.234-.174.424-.174.533 0 .084-.029.113-.213.217a.83.83 0 0 0-.188.141l-.056.067-.229-.09a9.812 9.812 0 0 0-.668-.217c-.241-.07-.499-.148-.573-.174a4.984 4.984 0 0 0-.908-.187 46.488 46.488 0 0 1-.718-.083 27.096 27.096 0 0 0-.891-.091 33.255 33.255 0 0 1-.648-.058c-.674-.072-1.136-.095-2.144-.108l-1.091-.014-.079-.106c-.232-.312-.861-.72-1.271-.823a2.417 2.417 0 0 1-.356-.119 1.184 1.184 0 0 0-.622-.057m.914.836c.218.046.564.237.933.512l.347.26.202.301c.111.166.245.4.297.521.052.121.15.34.218.486.188.406.535 1.471.623 1.91.115.576.151.784.165.964l.016.2.35.016c.193.009.559.035.814.06.255.024.713.066 1.018.092.672.058.933.091 1.602.201l.513.085.077-.061.366-.294c.159-.128.454-.35.655-.493l.365-.26.1-.188c.113-.211.43-.715.806-1.278.485-.727.612-.969.748-1.416a.802.802 0 0 1 .094-.201.266.266 0 0 0 .056-.173c.001-.315.273-.51.717-.514.361-.004.511.101.72.502.053.102.185.316.294.475.108.159.236.379.284.488.047.109.115.261.149.337.035.076.108.269.163.428.055.159.127.354.16.433.114.27.288.99.313 1.292.044.529.041 2.129-.004 2.317-.114.477-.459 1.12-.855 1.595l-.174.209.159.223c.088.123.241.378.34.566l.315.598c.074.14.19.349.257.464.068.115.131.23.14.255.009.025.05.098.091.163.055.086.14.337.319.938.31 1.041.306 1.025.639 2.347l.28 1.111.014.382c.01.281.004.48-.025.752-.021.204-.048.568-.059.81-.027.575-.058.84-.138 1.192a20.323 20.323 0 0 0-.104.481 2.188 2.188 0 0 1-.117.374c-.044.1-.121.297-.171.437-.239.666-.827 1.445-1.886 2.493a10.15 10.15 0 0 0-.778.857c-.317.394-.497.586-1.224 1.296-1.11 1.085-2.124 2.731-2.43 3.945a2.754 2.754 0 0 1-.055.2 2.442 2.442 0 0 1-.249-.074 5.497 5.497 0 0 0-.405-.116c-.441-.099-.745-.2-.939-.311a5.62 5.62 0 0 0-.66-.284 31.66 31.66 0 0 1-.833-.322 8.785 8.785 0 0 0-1.2-.411 20.42 20.42 0 0 1-.641-.184 6.859 6.859 0 0 0-.88-.232 10.11 10.11 0 0 1-.683-.173 14.679 14.679 0 0 0-.822-.209c-1.093-.243-1.911-.547-2.513-.932a2.166 2.166 0 0 0-.308-.166c-.369-.145-.677-.338-.816-.51a1.41 1.41 0 0 0-.196-.185c-.253-.191-.554-.469-.641-.592-.343-.484-1.357-2.772-1.713-3.865-.405-1.245-.55-1.821-.622-2.477-.069-.626-.001-3.461.096-3.97.025-.134.073-.399.105-.59.033-.191.096-.509.141-.706.045-.197.111-.525.147-.729.161-.91.532-2.1.761-2.438.723-1.066.773-1.127 1.091-1.345.169-.116.209-.154.209-.201 0-.213.165-.754.345-1.132.37-.776 1.493-2.547 1.879-2.963.184-.198.785-1.369.817-1.59.024-.164.063-.634.082-.979.014-.264.027-.342.068-.421a.472.472 0 0 0 .05-.178c0-.302.277-.48.63-.405m7.97 10.576c-.754.137-1.174.759-1.229 1.82-.054 1.053.32 1.654 1.117 1.792.67.116 1.062.016 1.441-.369.489-.497.554-1.997.114-2.654a1.421 1.421 0 0 0-1.443-.589m-9.317.124c-.654.178-1.088 1.06-1.088 2.216 0 1.129.568 1.616 1.782 1.528.799-.058 1.122-.324 1.355-1.113.168-.571.113-1.381-.121-1.782-.313-.534-1.372-1-1.928-.849m8.634 5.514c-.035.013-.069.029-.718.341-1.349.65-1.773.755-3.039.758-1.187.002-1.305-.013-1.774-.231a6.272 6.272 0 0 0-.344-.151 2.207 2.207 0 0 1-.566-.306c-.497-.441-1.219.067-.922.648.15.295.215.345.846.667 1.218.621 1.492.692 2.648.691 1.476-.001 1.838-.038 2.283-.232.064-.028.214-.086.334-.13.288-.105.681-.308.897-.463.096-.069.28-.185.408-.258.552-.313.739-.741.49-1.121-.1-.152-.393-.268-.543-.214"/><path fill="#141424" d="M24.872 3.597c-.141.062-.265.26-.266.426a.335.335 0 0 1-.04.127c-.027.05-.044.159-.055.34a18.313 18.313 0 0 1-.105 1.121c-.047.221-.667 1.389-.831 1.564-.225.241-.495.634-1.104 1.609-.702 1.122-.98 1.717-1.075 2.301l-.038.233-.183.12c-.244.16-.433.37-.736.817a120.615 120.615 0 0 1-.38.557c-.07.102-.148.242-.174.313-.193.532-.487 1.617-.569 2.102a12.011 12.011 0 0 1-.13.648 16.91 16.91 0 0 0-.161.815l-.126.715c-.033.184-.045.453-.103 2.341-.041 1.311.046 1.985.407 3.16.244.793.34 1.068.639 1.817.165.414.346.872.403 1.018.148.382.734 1.538.932 1.838.033.05.195.204.361.342.166.138.384.333.486.433.203.199.403.326.71.453.111.045.293.14.405.211.622.392 1.407.678 2.563.934.291.065.64.153.775.197.135.043.405.112.6.152.392.081.551.122.895.231.127.04.419.124.648.187.492.134.675.197 1.308.452.261.105.626.245.81.312.34.123.543.215.693.314.082.054.511.187.777.242.076.016.254.064.394.107l.295.091c.03.009.041-.001.041-.036 0-.027.043-.181.095-.343.438-1.355 1.49-2.982 2.532-3.915.323-.289.8-.796 1.079-1.148.218-.274.478-.559.856-.938 1.01-1.011 1.578-1.772 1.799-2.41.05-.145.125-.336.166-.425.045-.098.101-.289.141-.486.036-.178.087-.413.112-.521.025-.109.061-.413.081-.683l.063-.845c.058-.762.052-1.395-.014-1.643a95.028 95.028 0 0 1-.384-1.505c-.153-.616-.22-.858-.534-1.909a10.35 10.35 0 0 0-.234-.726c-.044-.053-.35-.612-.844-1.544a6.186 6.186 0 0 0-.333-.551l-.161-.228.183-.228c.26-.323.336-.439.575-.88a2.51 2.51 0 0 0 .312-1.25c-.003-.766-.049-1.986-.081-2.118-.095-.399-.206-.789-.261-.919-.034-.08-.113-.291-.175-.469a8.878 8.878 0 0 0-.203-.521l-.146-.325a3.462 3.462 0 0 0-.232-.384 7.216 7.216 0 0 1-.295-.474c-.221-.401-.384-.519-.71-.514-.436.006-.678.182-.719.522a.515.515 0 0 1-.069.199c-.03.044-.077.154-.104.244-.12.397-.17.488-.714 1.321-.471.721-.702 1.091-.821 1.312-.093.173-.105.185-.38.377a15.085 15.085 0 0 0-.98.747l-.202.168-.55-.091a17.847 17.847 0 0 0-1.71-.21 46.871 46.871 0 0 1-.88-.082 12.589 12.589 0 0 0-.742-.05c-.479-.016-.446.001-.448-.239a2.181 2.181 0 0 0-.034-.301l-.09-.477c-.105-.563-.426-1.572-.678-2.135-.259-.58-.333-.728-.422-.848a4.539 4.539 0 0 1-.159-.232c-.324-.513-1.4-1.083-1.754-.928m8.95 10.546c.506.093.989.605 1.06 1.123.112.816.095 1.168-.082 1.701-.241.727-1.05 1.029-1.98.741-.365-.113-.615-.391-.766-.853l-.073-.224.001-.532c.003-1.433.694-2.168 1.841-1.956m-9.207.143c.091.025.215.077.278.115.062.038.17.095.239.125.458.203.776.574.842.983.013.083.036.223.052.313.038.221.03.684-.013.857-.267 1.051-.574 1.313-1.572 1.345-.779.025-1.266-.198-1.506-.691-.287-.589-.172-1.689.266-2.551.231-.454.82-.66 1.416-.495m8.139 5.484c.257.059.396.243.412.545.018.342-.138.556-.588.812a4.703 4.703 0 0 0-.392.248c-.25.188-.672.389-1.347.639-.444.165-1.156.223-2.449.202-.773-.013-.771-.012-1.421-.259a6.098 6.098 0 0 1-.922-.422 5.688 5.688 0 0 0-.367-.183c-.513-.224-.749-.76-.487-1.105.228-.298.621-.331.886-.072.101.098.37.242.621.333.064.023.227.095.363.16.396.188.487.199 1.686.199h1.007l.294-.076c.541-.14 1.585-.571 2.297-.948a.797.797 0 0 1 .279-.096.82.82 0 0 1 .127.022"/><path fill="#9c6cd3" d="M23.688 2.524a.535.535 0 0 0-.303.163l-.072.074-1.049.031c-1.389.041-1.637.077-1.825.265-.105.105-.094.103-.729.138-.583.032-.787.09-.929.267l-.067.084-.421.032c-.506.038-.67.092-.749.246-.059.115-.038.108-.418.147-.383.04-.585.118-.677.26-.057.088-.117.111-.385.146-.289.038-.406.096-.476.233-.061.121-.041.112-.369.161-.23.034-.359.103-.417.223-.061.128-.048.12-.261.157-.261.046-.422.126-.488.243-.062.11-.087.125-.267.162-.16.033-.235.097-.258.219-.017.09-.072.128-.186.128-.199 0-.456.145-.52.294-.036.083-.057.101-.142.124-.201.054-.232.073-.276.171a.462.462 0 0 0-.043.135c0 .025-.025.046-.064.054-.194.044-.248.064-.298.114-.03.03-.055.069-.056.085-.001.047-.134.146-.335.251-.212.11-.274.161-.315.259-.023.055-.066.087-.2.148-.161.073-.174.085-.225.2-.062.141-.079.156-.224.21-.107.04-.111.044-.215.269-.017.037-.065.071-.137.097-.146.052-.168.073-.215.201-.054.145-.067.16-.2.217-.104.045-.121.063-.181.197-.047.105-.087.159-.139.187-.112.061-.202.141-.219.195-.03.095-.14.241-.304.406-.164.164-.175.186-.225.405-.008.035-.029.064-.048.064-.157 0-.26.112-.298.328-.017.096-.039.117-.151.155-.121.041-.154.083-.225.285-.046.133-.08.193-.117.21-.047.022-.205.212-.259.312a.629.629 0 0 0-.038.147c-.021.137-.026.145-.155.201-.123.054-.154.102-.223.345-.041.147-.063.182-.185.301-.164.16-.176.18-.213.384-.029.155-.031.158-.138.213-.132.067-.218.237-.259.513l-.025.172-.106.051c-.159.076-.212.205-.27.645-.013.101-.021.112-.123.162-.138.068-.203.191-.236.448-.041.307-.04.305-.147.357-.154.075-.286.452-.292.831a.509.509 0 0 1-.118.147c-.157.154-.197.253-.239.602-.043.348-.042.344-.128.393-.144.082-.214.286-.267.769-.035.326-.05.371-.129.396-.128.041-.217.333-.262.861-.037.426-.057.486-.194.576-.123.08-.155.235-.209 1.009-.019.265-.021.272-.1.36-.176.195-.235.431-.274 1.106-.034.579-.043.638-.104.686-.146.115-.251.594-.278 1.27-.045 1.129-.063 1.401-.095 1.419-.214.121-.272.564-.311 2.378-.026 1.197-.031 1.278-.085 1.322-.172.143-.273.761-.298 1.837-.023.982-.038 1.129-.121 1.224-.101.115-.139.245-.167.57a31.739 31.739 0 0 1-.048.509c-.023.215-.066 2.369-.068 3.406l-.001.524.156.029c.368.069.828.416 1.244.936.724.905 1.666 1.544 4.051 2.743 1.55.779 2.331 1.125 4.375 1.937.688.273 1.391.555 1.563.626.345.143.345.143 1.319.25 1.778.196 2.724.313 4.525.557 2.415.328 2.8.366 3.241.322 1.04-.104 2.288-.181 3.912-.243 1.741-.066 3.413-.182 3.704-.257.52-.134 1.607-.498 2.65-.888a65.936 65.936 0 0 1 .828-.304c.188-.066.623-.451.857-.759.057-.075.076-.859.027-1.074a8.627 8.627 0 0 1-.069-.613c-.075-.838-.157-1.164-.459-1.819a6.62 6.62 0 0 1-.164-.385 1.685 1.685 0 0 0-.163-.302 3.764 3.764 0 0 1-.231-.405 3.06 3.06 0 0 0-.198-.35l-.078-.108-.447-.01c-.493-.011-.464-.005-1.246-.244a30.45 30.45 0 0 0-.938-.261 33.11 33.11 0 0 1-2.829-.83 47.196 47.196 0 0 0-1.526-.475c-1.196-.345-1.558-.474-2.612-.934a52.846 52.846 0 0 0-1.785-.732c-.664-.259-1.231-.542-2.011-1.003-.28-.166-.671-.388-.868-.494-.793-.426-1.025-.609-1.845-1.458-.469-.485-.573-.612-.911-1.1-.211-.304-.302-.409-.74-.846-.807-.806-.952-1.01-1.586-2.233a26.559 26.559 0 0 0-.401-.741c-.549-.966-.834-1.786-.985-2.836-.162-1.119-.173-1.354-.146-3.125.025-1.68.06-1.986.32-2.831.038-.125.1-.382.138-.572.1-.511.18-.814.496-1.875.157-.528.319-1.086.36-1.238.234-.88.436-1.306.925-1.956.211-.28.275-.382.507-.802.519-.94 1.653-2.308 2.384-2.877.167-.13.405-.33.529-.444.329-.303.79-.603 1.691-1.1.2-.11.547-.304.773-.43.553-.31.903-.471 2.136-.98.621-.257.986-.394 1.282-.483l.171-.051.004-.345c.004-.317.009-.356.063-.475a.597.597 0 0 0 .059-.29c0-.328.118-.562.333-.658.194-.087.557-.082.749.009.076.036.238.091.359.121.409.103 1.039.51 1.271.823l.079.106 1.091.014c1.007.013 1.47.036 2.144.108.121.013.413.039.648.058.236.019.637.06.891.091s.578.068.718.083c.281.029.701.115.908.187.074.025.331.104.573.174.241.07.542.168.668.217l.229.09.056-.067a.853.853 0 0 1 .188-.141c.31-.174.293-.238-.076-.286-.196-.026-.28-.056-.31-.11-.084-.154-.338-.253-.72-.282-.3-.022-.372-.045-.429-.136-.098-.157-.324-.233-.786-.262-.305-.019-.372-.036-.43-.11-.147-.187-.332-.238-1.03-.28l-.501-.031-.073-.07c-.223-.212-.477-.251-1.897-.292l-1.037-.03-.063-.058c-.162-.151-.101-.143-1.218-.16l-1.715-.027a9.269 9.269 0 0 0-.791.008m1.318 1.034a.45.45 0 0 0 .116 0c.029-.005 0-.01-.064-.01s-.087.005-.052.01m-.293.145a.38.38 0 0 0-.083.121c0 .016.012.008.026-.017a.83.83 0 0 1 .097-.121c.039-.041.065-.075.058-.075s-.051.042-.097.093m1.768.636a.493.493 0 0 0 .09.081c.006 0-.024-.036-.067-.081a.54.54 0 0 0-.09-.081c-.006 0 .024.036.067.081m-1.982.174c0 .121.004.171.009.11a1.7 1.7 0 0 0 0-.22c-.005-.06-.009-.011-.009.11m12.306-.035a.493.493 0 0 0 .09.081c.006 0-.024-.036-.067-.081a.54.54 0 0 0-.09-.081c-.006 0 .024.036.067.081M23.575 7.159l-.091.098.098-.091a.921.921 0 0 0 .098-.099c0-.018-.02 0-.105.092m15.43-.035c0 .022.021.127.046.233.025.106.046.216.046.245 0 .07.228.361.343.437.05.033.204.158.343.277a16.114 16.114 0 0 0 .564.458c1.207.929 1.892 1.808 2.28 2.919.043.122.119.304.169.405.269.537.445 1.028.538 1.502.063.322.18.709.323 1.065.07.175.111.319.4 1.401l.121.451-.008.532-.011.729c-.002.108.009.519.025.912.045 1.127.038 2.397-.017 3.023a377.509 377.509 0 0 0-.071.81c-.079.914-.523 2.368-.941 3.079-.633 1.076-.886 1.469-1.237 1.922-.24.31-.613.863-.912 1.353-.24.392-.387.588-.696.926a19.822 19.822 0 0 0-.432.489c-.098.116-.321.366-.495.555-.758.822-.93 1.1-1.362 2.196a19.476 19.476 0 0 1-.319.752c-.215.473-.233.528-.284.848l-.041.258.104.136c.334.435.578.8.767 1.143.046.083.151.244.234.359.083.115.184.271.225.347.041.076.14.235.221.354.307.451.44.817.673 1.857.059.264.06.277.069 1.462l.009 1.196.278.272.278.272.467-.015c.422-.014.846-.065.999-.121.025-.009.153-.089.284-.177.131-.088.415-.252.63-.365.215-.113.424-.23.464-.259.125-.092 1.013-1.081 1.503-1.674l.498-.602a11.787 11.787 0 0 0 .38-.486c.237-.326 1.146-1.226 1.428-1.415.863-.577 2.1-.559 2.7.04.111.111.203.188.203.171 0-.076-.058-.171-.178-.293-.118-.12-.166-.188-.306-.441-.069-.123-.417-.272-.637-.272-.004 0-.014-.57-.022-1.267-.02-1.59-.045-1.833-.247-2.317-.108-.26-.115-.372-.032-.535.072-.143.073-.241.004-.334-.081-.107-.088-.143-.086-.407.005-.652-.051-3.485-.083-4.201-.041-.898-.054-.967-.213-1.06-.09-.052-.089-.042-.132-1.198-.043-1.145-.077-1.335-.26-1.452-.093-.059-.092-.054-.108-.432-.051-1.2-.091-1.404-.289-1.506-.088-.046-.087-.042-.117-.556-.041-.702-.125-.968-.329-1.035-.015-.005-.034-.12-.045-.274-.056-.747-.099-.904-.271-.981-.053-.024-.096-.055-.097-.069 0-.014-.016-.171-.034-.349-.055-.528-.108-.686-.253-.765-.1-.054-.096-.042-.139-.416-.05-.434-.117-.606-.268-.683-.051-.026-.092-.057-.092-.068 0-.318-.119-.741-.224-.795-.117-.06-.146-.116-.194-.365a16.789 16.789 0 0 0-.057-.29.85.85 0 0 0-.159-.201c-.147-.151-.147-.151-.176-.344-.038-.253-.084-.353-.23-.503-.136-.14-.151-.169-.175-.349-.019-.142-.075-.301-.106-.301-.011 0-.036-.031-.055-.068a.322.322 0 0 0-.103-.108c-.068-.04-.098-.104-.162-.349-.029-.111-.105-.181-.233-.215l-.087-.023-.025-.171c-.041-.277-.127-.445-.26-.513-.105-.053-.112-.062-.137-.19a3.902 3.902 0 0 0-.037-.171c-.017-.06-.107-.132-.206-.164-.089-.029-.093-.035-.129-.192-.064-.281-.141-.419-.268-.48-.12-.058-.137-.078-.171-.215-.034-.135-.069-.171-.209-.217l-.125-.041-.037-.152c-.046-.187-.067-.213-.209-.261-.104-.035-.116-.046-.138-.134-.04-.157-.063-.197-.142-.237a.735.735 0 0 1-.275-.297c-.09-.186-.177-.303-.261-.35a.585.585 0 0 1-.251-.249.344.344 0 0 0-.117-.127.698.698 0 0 1-.276-.264.355.355 0 0 0-.117-.13c-.122-.067-.261-.191-.303-.272a.308.308 0 0 0-.116-.116.662.662 0 0 1-.122-.081.536.536 0 0 0-.149-.079c-.13-.046-.177-.089-.231-.211-.061-.138-.279-.24-.279-.13m-.592 1.754c0 .267.003.373.007.236a9.693 9.693 0 0 0 0-.486c-.004-.13-.007-.017-.007.25m-10.398-.278c0 .051.005.069.011.04a.262.262 0 0 0-.001-.093c-.006-.022-.01.002-.01.052m.104.144c.054.005.143.005.197 0 .054-.005.01-.009-.098-.009s-.152.004-.098.009m.579.023a.362.362 0 0 0 .104 0c.029-.005.005-.01-.052-.01-.057 0-.081.005-.052.01m.289.023a.184.184 0 0 0 .081 0c.022-.006.004-.011-.041-.011-.044 0-.063.005-.041.011m.463.046a.184.184 0 0 0 .081 0c.022-.006.004-.011-.041-.011s-.063.005-.041.011m.243.024c.029.005.07.005.093-.001.022-.006-.001-.01-.052-.01s-.069.005-.04.011m.278.023c.029.005.07.005.092-.001.022-.006-.001-.01-.052-.01s-.069.005-.04.011m.278.023c.029.005.07.005.093-.001.022-.006-.002-.01-.052-.01-.051 0-.069.005-.04.011m.266.023a.184.184 0 0 0 .081 0c.022-.006.004-.011-.041-.011-.044 0-.063.005-.041.011m1.857.213a.187.187 0 0 1-.068.032c-.044.011-.044.011.003.014a.105.105 0 0 0 .078-.032c.031-.038.023-.048-.013-.014m6.062.581c0 .096.004.135.009.087a1.011 1.011 0 0 0 0-.174c-.005-.048-.009-.009-.009.087m-.002.474c0 .051.005.069.011.04a.264.264 0 0 0 0-.093c-.006-.022-.01.002-.01.052m-17.567 1.471-.115.121.121-.115c.113-.107.132-.128.115-.128a1.7 1.7 0 0 0-.122.122m-.659.897c-.027.038-.044.069-.038.069a.266.266 0 0 0 .061-.069c.027-.038.044-.07.038-.07a.26.26 0 0 0-.061.07m13.432 1.567a.184.184 0 0 0 .081 0c.022-.006.004-.011-.041-.011-.044 0-.063.005-.041.011m-9.537.093a.45.45 0 0 0 .116 0c.028-.005 0-.01-.064-.01s-.087.005-.052.01m8.361.29-.092.098.099-.091c.091-.085.109-.105.091-.105a.968.968 0 0 0-.098.098m2.003-.017a.54.54 0 0 0 .09.081c.006 0-.024-.036-.067-.081a.493.493 0 0 0-.09-.081c-.006 0 .024.036.067.081m-11.112.075-.08.087.087-.08c.081-.074.098-.094.08-.094a.765.765 0 0 0-.087.087m11.263.11c.093.129.118.153.067.062a.549.549 0 0 0-.089-.116c-.026-.023-.017 0 .022.054m-8.971.208.136.15c.006.006-.001-.009-.014-.035a.885.885 0 0 0-.136-.15l-.111-.104.125.139m9.242.521c0 .045.005.063.011.041a.184.184 0 0 0 0-.081c-.006-.022-.011-.004-.011.041m-2.916.394c0 .057.004.081.01.052a.323.323 0 0 0 0-.104c-.005-.029-.01-.005-.01.052m2.962 0c0 .045.005.063.011.041a.184.184 0 0 0 0-.081c-.006-.022-.011-.004-.011.041m-8.886.405c0 .102.004.141.009.086a1.159 1.159 0 0 0 0-.185c-.005-.047-.009-.003-.009.099m-3.263.278c0 .178.004.248.008.155a4.374 4.374 0 0 0 0-.324c-.004-.085-.008-.009-.008.169m12.149-.197c0 .045.005.063.011.041a.188.188 0 0 0 0-.081c-.006-.022-.011-.004-.011.041m-2.963.162c0 .044.005.063.011.041a.184.184 0 0 0 0-.081c-.006-.022-.011-.004-.011.041m-6.186.857a1.114 1.114 0 0 1-.099.169c-.041.058-.051.081-.023.056.052-.046.179-.269.163-.285-.006-.006-.024.021-.04.06m8.796.023c-.04.051-.068.092-.062.092a.555.555 0 0 0 .085-.092c.04-.051.068-.093.062-.093a.497.497 0 0 0-.085.093m-2.246.052c.057.06.106.11.11.11.017 0-.001-.021-.103-.117l-.11-.103.103.11m-9.353.037a.318.318 0 0 0 .063.075c.025.02.019.004-.015-.042-.061-.083-.084-.099-.049-.033m.176.212c.05.051.096.093.102.093a.407.407 0 0 0-.079-.093.687.687 0 0 0-.102-.093.407.407 0 0 0 .079.093m2.36.052-.068.075.075-.068c.07-.063.086-.083.068-.083a.574.574 0 0 0-.075.075m-6.67.098c0 .076.004.105.01.063a.62.62 0 0 0 0-.139c-.005-.035-.009-.001-.009.076m14.652.029c.061.005.155.005.208 0 .054-.005.004-.009-.111-.009s-.159.004-.098.009m-10.076.017c0 .016.142.086.152.076.005-.005-.027-.026-.072-.048-.044-.021-.081-.034-.081-.028m1.036.19c.029.005.07.005.092-.001.022-.006-.001-.01-.052-.01s-.069.005-.04.011m-5.634.539c0 .121.004.17.009.11.005-.06.005-.159 0-.22s-.009-.011-.009.11m-.024.59c0 .089.004.123.009.075a.876.876 0 0 0 0-.162c-.005-.041-.009-.002-.009.087m21.113.463c0 .191.004.266.008.167s.004-.256 0-.347-.008-.011-.008.18m-21.134.266c0 .172.004.242.008.156a4.084 4.084 0 0 0 0-.313c-.004-.086-.008-.016-.008.156m14.044-.086.079.048.069.041-.055-.048c-.03-.026-.066-.048-.079-.048-.013 0-.02.003-.015.007m-7.584.392-.068.075.075-.068c.07-.063.086-.083.068-.083a.574.574 0 0 0-.075.075m14.625.145c0 .051.005.069.011.04a.262.262 0 0 0-.001-.093c-.006-.022-.01.002-.01.052m-21.086.324c0 .089.004.123.009.075a.876.876 0 0 0 0-.162c-.005-.041-.009-.002-.009.087m21.063-.046c0 .051.005.069.011.04a.256.256 0 0 0-.001-.092c-.006-.022-.01.001-.01.052m-12.037.259a.184.184 0 0 0 .081 0c.022-.006.004-.011-.041-.011s-.063.005-.041.011m-9.004.146c0 .057.004.081.01.052a.331.331 0 0 0 0-.104c-.005-.029-.01-.005-.01.052m21.018.174c0 .051.005.069.011.04a.264.264 0 0 0 0-.093c-.006-.022-.01.002-.01.052m-.024.266c0 .044.005.063.011.041a.184.184 0 0 0 0-.081c-.006-.022-.011-.004-.011.041m-10.069.734a.54.54 0 0 0 .127 0c.035-.005.006-.01-.064-.01s-.099.004-.064.01m-1.471.024c.219.004.583.004.81 0 .227-.004.048-.007-.398-.007s-.631.003-.412.007m9.763 3.114-.091.098.098-.091c.091-.085.109-.105.091-.105a.968.968 0 0 0-.098.098m-.393.417-.254.261.261-.254c.143-.14.26-.257.26-.261 0-.017-.03.012-.267.254m-17.278.284c0 .013.015.049.033.081.018.032.033.048.033.035a.259.259 0 0 0-.033-.081c-.018-.032-.033-.048-.033-.035m16.861.11-.091.098.098-.091c.091-.085.109-.105.092-.105a1.04 1.04 0 0 0-.099.098m-.232.255c-.137.146-.205.226-.192.226.006 0 .076-.073.156-.162.159-.177.184-.221.036-.064m-.648.787-.068.075.075-.068c.07-.063.086-.083.068-.083a.574.574 0 0 0-.075.075m-15.369.064c.02.038.041.07.048.07.006 0-.005-.031-.024-.07-.02-.038-.041-.07-.048-.07-.006 0 .005.031.024.07m15.011.318-.243.249.249-.243c.231-.225.259-.255.243-.255-.003 0-.115.112-.249.249m-.36.336-.068.075.075-.068c.07-.063.086-.082.068-.082a.574.574 0 0 0-.075.075m-.254.255-.091.099.098-.092c.091-.085.109-.105.091-.105a.968.968 0 0 0-.098.098m-13.309.249c.05.051.096.093.102.093a.407.407 0 0 0-.079-.093.687.687 0 0 0-.102-.093.407.407 0 0 0 .079.093m13.031.029-.115.121.121-.115a1.82 1.82 0 0 0 .122-.121c0-.017-.021.002-.128.115m-.279.301c-.098.104-.207.238-.146.179.07-.067.258-.278.248-.278a.743.743 0 0 0-.102.098m-.719.972c-.08.135-.085.147-.044.098.047-.056.087-.127.072-.127-.006 0-.019.013-.028.029m-.483.851c-.02.038-.031.07-.024.07.006 0 .028-.031.047-.07.02-.038.031-.069.024-.069-.006 0-.028.031-.048.069"/></g></svg>